<svg width="800" height="600" viewBox="0 0 800 600" fill="none" xmlns="http://www.w3.org/2000/svg">
  <rect width="800" height="600" fill="#F5F5F5"/>
  <rect x="1" y="1" width="798" height="598" stroke="#E0E0E0" stroke-width="2"/>
  
  <rect x="300" y="150" width="200" height="300" rx="8" fill="#FFFFFF" stroke="#E0E0E0" stroke-width="2"/>
  <path d="M300 158 L500 158" stroke="#E0E0E0" stroke-width="2"/>
  <path d="M300 180 L500 180" stroke="#E0E0E0" stroke-width="1"/>
  
  <rect x="320" y="200" width="160" height="10" rx="2" fill="#E0E0E0"/>
  <rect x="320" y="220" width="120" height="10" rx="2" fill="#E0E0E0"/>
  
  <rect x="320" y="250" width="160" height="10" rx="2" fill="#E0E0E0"/>
  <rect x="320" y="270" width="160" height="10" rx="2" fill="#E0E0E0"/>
  <rect x="320" y="290" width="160" height="10" rx="2" fill="#E0E0E0"/>
  <rect x="320" y="310" width="120" height="10" rx="2" fill="#E0E0E0"/>
  
  <rect x="320" y="340" width="160" height="10" rx="2" fill="#E0E0E0"/>
  <rect x="320" y="360" width="160" height="10" rx="2" fill="#E0E0E0"/>
  <rect x="320" y="380" width="90" height="10" rx="2" fill="#E0E0E0"/>
  
  <text x="400" y="480" font-family="Arial" font-size="24" text-anchor="middle" fill="#A0A0A0">Document Placeholder</text>
</svg> 