<svg xmlns="http://www.w3.org/2000/svg" width="600" height="400" viewBox="0 0 600 400">
  <rect width="600" height="400" fill="#F3F4F6"/>
  <rect x="20" y="20" width="560" height="60" rx="4" fill="#E5E7EB"/>
  <rect x="40" y="40" width="180" height="20" rx="2" fill="#9CA3AF"/>
  <rect x="460" y="40" width="100" height="20" rx="10" fill="#6366F1"/>
  
  <rect x="20" y="100" width="270" height="120" rx="4" fill="#E5E7EB"/>
  <rect x="40" y="120" width="120" height="10" rx="2" fill="#9CA3AF"/>
  <rect x="40" y="140" width="230" height="60" rx="2" fill="#D1D5DB"/>
  
  <rect x="310" y="100" width="270" height="120" rx="4" fill="#E5E7EB"/>
  <rect x="330" y="120" width="140" height="10" rx="2" fill="#9CA3AF"/>
  <rect x="330" y="140" width="230" height="60" rx="2" fill="#D1D5DB"/>
  
  <rect x="20" y="240" width="560" height="140" rx="4" fill="#E5E7EB"/>
  <rect x="40" y="260" width="160" height="10" rx="2" fill="#9CA3AF"/>
  <rect x="40" y="280" width="520" height="80" rx="2" fill="#D1D5DB"/>
  
  <text x="300" y="200" font-family="Arial" font-size="24" fill="#4B5563" dominant-baseline="middle" text-anchor="middle">Vizora Dashboard</text>
</svg> 